<svg width="366" height="394" viewBox="0 0 366 394" fill="none" xmlns="http://www.w3.org/2000/svg">
<path fill-rule="evenodd" clip-rule="evenodd" d="M195.924 204.501C182.761 212.802 164.915 214.096 150.293 208.382C110.5 211.505 101 273 142 283C158 313.5 225.5 324 244.5 283C267.5 286 294.5 227 244.5 211.505C232.009 207.633 220.161 205.226 195.924 204.501ZM158 286C171.245 303.866 217.272 302.18 229.5 286H158ZM229.5 217.5C271 219 274 274.5 235 275.5C203.676 276.303 186.148 276.836 154.5 274.5C113.5 273.5 117.5 219 156.5 217.5C184.684 212.862 200.773 214.386 229.5 217.5Z" fill="white"/>
<path d="M288.5 143.505L306 125.005C304.128 122.547 302.336 120.518 300.5 118.818C292.599 111.5 276 108 263 109.5C206 111.505 202.5 206.5 263.5 211.505C283.291 212.501 293.231 210.155 307.5 197.005L288.5 177.505C286 181 283 184.5 276 185.005C236.5 187.852 241.5 136.005 270 136.005C279.5 136.005 283.337 138.228 288.5 143.505Z" fill="white"/>
<path d="M300.5 118.818C302.336 120.518 304.128 122.547 306 125.005C329.132 123.924 341.729 120.679 360.5 89.5C333.5 66 300.14 68.095 273.5 100.505C304.168 85.1147 319.369 84.1443 341 97.5046C327.991 113.029 319.387 118.129 300.5 118.818Z" fill="white"/>
<path d="M152.5 111.505H124V169.505C124 189.64 135.496 202.599 150.293 208.382C164.915 214.096 182.761 212.802 195.924 204.501C206.815 197.633 214.5 185.968 214.5 169.505V111.505H185.5V171.505C185.5 190.5 152.5 190 152.5 171.505V111.505Z" fill="white"/>
<path d="M55 96C78.7865 84.0551 93.45 85.6262 121.5 99.5C107 78.5 71.5 59.5 35 90C47.2113 109.701 56.5909 117.755 79 124.897L83.1426 117.5C66.2593 111.322 60.4881 106.416 55 96Z" fill="white"/>
<path d="M152.5 59.5L128.5 87C96 74 68 39 105 2C96.4258 38.4273 111 56 152.5 59.5Z" fill="white"/>
<path d="M1 111.505V210.005H30.5L28.5 159.505L48.5 194.005H68L88 159.505V210.005H105C83.5963 262.302 77.0482 293.144 70 349.505L91 363.005C93.6986 306.743 98.5198 277.178 116 230.005V111.505H86.5L83.1426 117.5L79 124.897L58.5 161.505L30.5 111.505H1Z" fill="white"/>
<path d="M187 392.5C190.336 370.453 183.5 349.505 166 343C161 341 163.5 327.854 176 330.5C211.693 338.056 228.37 339.663 236.5 325.5C242 317 258.5 340.167 251.5 349.505C239.23 365.872 239.5 376 235 390C217.182 393.001 206.472 393.099 187 392.5Z" fill="white"/>
<path fill-rule="evenodd" clip-rule="evenodd" d="M349 330.5H335L329 313.5H288.5L284.5 330.5H254L294.5 230.005H324.5L364.5 330.5H349ZM298.5 290H320L309 261.5L298.5 290Z" fill="white"/>
<path d="M268 87C301.917 78.2251 327 34 291.5 2C298.5 34 291.264 54.2374 242 59.5C248.996 63.1817 254.546 69.0595 268 87Z" fill="white"/>
<path d="M306 125.005L288.5 143.505C283.337 138.228 279.5 136.005 270 136.005C241.5 136.005 236.5 187.852 276 185.005C283 184.5 286 181 288.5 177.505L307.5 197.005C293.231 210.155 283.291 212.501 263.5 211.505C202.5 206.5 206 111.505 263 109.5C276 108 292.599 111.5 300.5 118.818M306 125.005C304.128 122.547 302.336 120.518 300.5 118.818M306 125.005C329.132 123.924 341.729 120.679 360.5 89.5C333.5 66 300.14 68.095 273.5 100.505C304.168 85.1147 319.369 84.1443 341 97.5046C327.991 113.029 319.387 118.129 300.5 118.818M83.1426 117.5L86.5 111.505H116V230.005C98.5198 277.178 93.6986 306.743 91 363.005L70 349.505C77.0482 293.144 83.5963 262.302 105 210.005H88V159.505L68 194.005H48.5L28.5 159.505L30.5 210.005H1V111.505H30.5L58.5 161.505L79 124.897M83.1426 117.5C66.2593 111.322 60.4881 106.416 55 96C78.7865 84.0551 93.45 85.6262 121.5 99.5C107 78.5 71.5 59.5 35 90C47.2113 109.701 56.5909 117.755 79 124.897M83.1426 117.5L79 124.897M150.293 208.382C135.496 202.599 124 189.64 124 169.505V111.505H152.5V171.505C152.5 190 185.5 190.5 185.5 171.505V111.505H214.5V169.505C214.5 185.968 206.815 197.633 195.924 204.501M150.293 208.382C110.5 211.505 101 273 142 283C158 313.5 225.5 324 244.5 283C267.5 286 294.5 227 244.5 211.505C232.009 207.633 220.161 205.226 195.924 204.501M150.293 208.382C164.915 214.096 182.761 212.802 195.924 204.501M195.874 204.5C195.891 204.5 195.907 204.501 195.924 204.501M268 87C301.917 78.2251 327 34 291.5 2C298.5 34 291.264 54.2374 242 59.5C248.996 63.1817 254.546 69.0595 268 87ZM152.5 59.5L128.5 87C96 74 68 39 105 2C96.4258 38.4273 111 56 152.5 59.5ZM187 392.5C190.336 370.453 183.5 349.505 166 343C161 341 163.5 327.854 176 330.5C211.693 338.056 228.37 339.663 236.5 325.5C242 317 258.5 340.167 251.5 349.505C239.23 365.872 239.5 376 235 390C217.182 393.001 206.472 393.099 187 392.5ZM349 330.5H335L329 313.5H288.5L284.5 330.5H254L294.5 230.005H324.5L364.5 330.5H349ZM320 290H298.5L309 261.5L320 290ZM158 286C171.245 303.866 217.272 302.18 229.5 286H158ZM235 275.5C274 274.5 271 219 229.5 217.5C200.773 214.386 184.684 212.862 156.5 217.5C117.5 219 113.5 273.5 154.5 274.5C186.148 276.836 203.676 276.303 235 275.5Z" stroke="white"/>
<path d="M173 247C173 254.732 169.68 259 162.5 259C155.5 257 149 252.232 149 244.5C149 236.768 152.32 231.5 159.5 231.5C166.5 233.5 173 239.268 173 247Z" fill="white"/>
<path d="M237.5 246C237.5 253.732 227.18 258 220 258C213 256 213.5 253.232 213.5 245.5C213.5 237.768 222.82 232 230 232C238 235.5 238 240.5 237.5 246Z" fill="white"/>
</svg>
